<svg width="40" height="40" viewBox="0 0 40 40" fill="inherit" xmlns="http://www.w3.org/2000/svg">
<path fill-rule="evenodd" clip-rule="evenodd" d="M39.3108 4.01672C40.2297 3.09784 40.2297 1.60804 39.3108 0.68916C38.392 -0.22972 36.9022 -0.22972 35.9833 0.68916L20 16.6724L4.01672 0.68916C3.09784 -0.22972 1.60804 -0.22972 0.68916 0.68916C-0.22972 1.60804 -0.22972 3.09784 0.68916 4.01672L16.6724 20L0.68916 35.9833C-0.22972 36.9022 -0.22972 38.392 0.68916 39.3108C1.60804 40.2297 3.09784 40.2297 4.01672 39.3108L20 23.3276L35.9833 39.3108C36.9022 40.2297 38.392 40.2297 39.3108 39.3108C40.2297 38.392 40.2297 36.9022 39.3108 35.9833L23.3276 20L39.3108 4.01672Z"/>
</svg>
