<svg width="40" height="40" viewBox="0 0 40 40" fill="inherit" xmlns="http://www.w3.org/2000/svg">
<path fill-rule="evenodd" clip-rule="evenodd" d="M3.26531 20C3.26531 10.7577 10.7577 3.26531 20 3.26531C29.2423 3.26531 36.7347 10.7577 36.7347 20C36.7347 29.2423 29.2423 36.7347 20 36.7347C10.7577 36.7347 3.26531 29.2423 3.26531 20ZM20 0C8.95431 0 0 8.95431 0 20C0 31.0457 8.95431 40 20 40C31.0457 40 40 31.0457 40 20C40 8.95431 31.0457 0 20 0ZM21.6327 9.79592C21.6327 8.89423 20.9017 8.16327 20 8.16327C19.0983 8.16327 18.3673 8.89423 18.3673 9.79592V20C18.3673 20.433 18.5394 20.8483 18.8455 21.1545L24.968 27.2769C25.6056 27.9145 26.6393 27.9145 27.2769 27.2769C27.9145 26.6393 27.9145 25.6056 27.2769 24.968L21.6327 19.3237V9.79592Z"/>
</svg>
