<svg width="40" height="40" viewBox="0 0 40 40" fill="inherit" xmlns="http://www.w3.org/2000/svg">
<path fill-rule="evenodd" clip-rule="evenodd" d="M29.3447 1.82815C30.5153 0.657605 32.1029 0 33.7583 0C35.4137 0 37.0013 0.657605 38.1718 1.82815C39.3424 2.99869 40 4.58629 40 6.24169C40 7.89709 39.3424 9.48469 38.1718 10.6552L34.9737 13.8534C34.9714 13.8556 34.9692 13.8579 34.9669 13.8602C34.9647 13.8624 34.9624 13.8647 34.9601 13.8669L20.0107 28.8163C19.6902 29.1369 19.2554 29.317 18.8021 29.317H12.3923C11.4483 29.317 10.683 28.5517 10.683 27.6077V21.1979C10.683 20.7446 10.8631 20.3098 11.1836 19.9892L26.1398 5.03309L29.3447 1.82815ZM27.3485 8.659L14.1016 21.9059V25.8984H18.0941L31.341 12.6515L27.3485 8.659ZM33.7583 10.2342L29.7657 6.24171L31.762 4.24544C32.2915 3.716 33.0095 3.41856 33.7583 3.41856C34.507 3.41856 35.2251 3.716 35.7545 4.24544C36.284 4.77488 36.5814 5.49295 36.5814 6.24169C36.5814 6.99043 36.284 7.70851 35.7545 8.23795L33.7583 10.2342ZM1.75223 10.5579C2.87416 9.43594 4.39583 8.80565 5.98248 8.80565H12.3923C13.3363 8.80565 14.1016 9.57092 14.1016 10.5149C14.1016 11.4589 13.3363 12.2242 12.3923 12.2242H5.98248C5.30248 12.2242 4.65034 12.4943 4.16951 12.9752C3.68869 13.456 3.41856 14.1081 3.41856 14.7881V34.0175C3.41856 34.6975 3.68869 35.3497 4.16951 35.8305C4.65034 36.3113 5.30249 36.5814 5.98248 36.5814H25.2119C25.8919 36.5814 26.544 36.3113 27.0248 35.8305C27.5057 35.3497 27.7758 34.6975 27.7758 34.0175V27.6077C27.7758 26.6637 28.5411 25.8984 29.4851 25.8984C30.4291 25.8984 31.1944 26.6637 31.1944 27.6077V34.0175C31.1944 35.6042 30.5641 37.1258 29.4421 38.2478C28.3202 39.3697 26.7985 40 25.2119 40H5.98248C4.39583 40 2.87416 39.3697 1.75223 38.2478C0.630295 37.1258 0 35.6042 0 34.0175V14.7881C0 13.2015 0.630295 11.6798 1.75223 10.5579Z"/>
</svg>
