<svg width="40" height="40" viewBox="0 0 40 40" fill="inherit" xmlns="http://www.w3.org/2000/svg">
<path fill-rule="evenodd" clip-rule="evenodd" d="M3.63636 8.63636C3.63636 5.87494 5.87494 3.63636 8.63636 3.63636H31.3636C34.1251 3.63636 36.3636 5.87494 36.3636 8.63636V22.4286L34.922 20.987L34.897 20.9625C33.5945 19.7091 31.9863 18.932 30.2273 18.932C28.4683 18.932 26.86 19.7091 25.5575 20.9625L25.5325 20.987L24.5455 21.974L19.0129 16.4415L18.988 16.417C17.6854 15.1637 16.0772 14.3865 14.3182 14.3865C12.5592 14.3865 10.9509 15.1637 9.64841 16.417L9.62344 16.4415L3.63636 22.4286V8.63636ZM27.1168 24.5453L28.0906 23.5715C28.8568 22.8386 29.5958 22.5684 30.2273 22.5684C30.8587 22.5684 31.5977 22.8386 32.364 23.5715L36.3636 27.5712V31.3636C36.3636 34.1251 34.1251 36.3636 31.3636 36.3636H8.63636C5.87494 36.3636 3.63636 34.1251 3.63636 31.3636V27.5712L12.1815 19.0261C12.9478 18.2932 13.6867 18.0229 14.3182 18.0229C14.9496 18.0229 15.6886 18.2932 16.4549 19.0261L23.2598 25.831L27.8053 30.3764C28.5153 31.0865 29.6665 31.0865 30.3766 30.3764C31.0866 29.6664 31.0866 28.5152 30.3766 27.8052L27.1168 24.5453ZM40 26.8209V31.3636C40 36.1334 36.1334 40 31.3636 40H8.63636C3.86663 40 0 36.1334 0 31.3636V26.8181V8.63636C0 3.86663 3.86663 0 8.63636 0H31.3636C36.1334 0 40 3.86663 40 8.63636V26.8153C40 26.8171 40 26.819 40 26.8209ZM26.8182 9.09091C25.814 9.09091 25 9.90494 25 10.9091C25 11.9132 25.814 12.7273 26.8182 12.7273H26.8409C27.8451 12.7273 28.6591 11.9132 28.6591 10.9091C28.6591 9.90494 27.8451 9.09091 26.8409 9.09091H26.8182Z"/>
</svg>
