<svg width="40" height="40" viewBox="0 0 40 40" fill="inherit" xmlns="http://www.w3.org/2000/svg">
<path fill-rule="evenodd" clip-rule="evenodd" d="M29.7551 1.63265C29.7551 0.730964 29.0241 0 28.1224 0C27.2208 0 26.4898 0.730964 26.4898 1.63265V4.08163H13.4286V1.63265C13.4286 0.730964 12.6976 0 11.7959 0C10.8942 0 10.1633 0.730964 10.1633 1.63265V4.08163H7.71429C4.55837 4.08163 2 6.64001 2 9.79592V17.9592V34.2857C2 37.4416 4.55837 40 7.71429 40H32.2041C35.36 40 37.9184 37.4416 37.9184 34.2857V17.9592V9.79592C37.9184 6.64001 35.36 4.08163 32.2041 4.08163H29.7551V1.63265ZM34.6531 16.3265V9.79592C34.6531 8.44338 33.5566 7.34694 32.2041 7.34694H29.7551V9.79592C29.7551 10.6976 29.0241 11.4286 28.1224 11.4286C27.2208 11.4286 26.4898 10.6976 26.4898 9.79592V7.34694H13.4286V9.79592C13.4286 10.6976 12.6976 11.4286 11.7959 11.4286C10.8942 11.4286 10.1633 10.6976 10.1633 9.79592V7.34694H7.71429C6.36175 7.34694 5.26531 8.44338 5.26531 9.79592V16.3265H34.6531ZM5.26531 19.5918H34.6531V34.2857C34.6531 35.6383 33.5566 36.7347 32.2041 36.7347H7.71429C6.36175 36.7347 5.26531 35.6383 5.26531 34.2857V19.5918Z" />
</svg>
