<svg width="40" height="40" viewBox="0 0 40 40" fill="inherit" xmlns="http://www.w3.org/2000/svg">
<path fill-rule="evenodd" clip-rule="evenodd" d="M15.5889 3.38486C15.6655 3.30831 15.7693 3.26531 15.8776 3.26531H24.0408C24.1491 3.26531 24.2529 3.30831 24.3295 3.38486C24.406 3.4614 24.449 3.56522 24.449 3.67347V8.16327H15.4694V3.67347C15.4694 3.56522 15.5124 3.4614 15.5889 3.38486ZM13.8385 11.4286C13.8379 11.4286 13.8373 11.4286 13.8367 11.4286C13.8361 11.4286 13.8355 11.4286 13.8349 11.4286H7.44781L9.34127 34.1501C9.34503 34.1952 9.34691 34.2405 9.34691 34.2857C9.34691 34.9352 9.60493 35.5581 10.0642 36.0174C10.5235 36.4767 11.1464 36.7347 11.7959 36.7347H28.1224C28.7719 36.7347 29.3949 36.4767 29.8541 36.0174C30.3134 35.5581 30.5714 34.9352 30.5714 34.2857C30.5714 34.2405 30.5733 34.1952 30.5771 34.1501L32.4705 11.4286H26.0835C26.0829 11.4286 26.0823 11.4286 26.0817 11.4286C26.0811 11.4286 26.0805 11.4286 26.0799 11.4286H13.8385ZM27.7143 8.16327V3.67347C27.7143 2.69921 27.3273 1.76484 26.6384 1.07594C25.9495 0.387025 25.0151 0 24.0408 0H15.8776C14.9033 0 13.9689 0.387025 13.28 1.07594C12.5911 1.76484 12.2041 2.69921 12.2041 3.67347V8.16327H5.69552H5.65499H3.63265C2.73096 8.16327 2 8.89424 2 9.79593C2 10.6976 2.73096 11.4286 3.63265 11.4286H4.17118L6.08208 34.3593C6.10123 35.8482 6.701 37.272 7.75528 38.3263C8.82692 39.398 10.2804 40 11.7959 40H28.1224C29.638 40 31.0914 39.398 32.1631 38.3263C33.2173 37.272 33.8171 35.8482 33.8363 34.3593L35.7471 11.4286H36.2857C37.1874 11.4286 37.9184 10.6976 37.9184 9.79593C37.9184 8.89424 37.1874 8.16327 36.2857 8.16327H34.2633H34.2228H27.7143ZM15.8776 16.3265C16.7793 16.3265 17.5102 17.0575 17.5102 17.9592V30.2041C17.5102 31.1058 16.7793 31.8368 15.8776 31.8368C14.9759 31.8368 14.2449 31.1058 14.2449 30.2041V17.9592C14.2449 17.0575 14.9759 16.3265 15.8776 16.3265ZM25.6735 17.9592C25.6735 17.0575 24.9425 16.3265 24.0408 16.3265C23.1391 16.3265 22.4082 17.0575 22.4082 17.9592V30.2041C22.4082 31.1058 23.1391 31.8368 24.0408 31.8368C24.9425 31.8368 25.6735 31.1058 25.6735 30.2041V17.9592Z" />
</svg>
