<svg width="40" height="40" viewBox="0 0 40 40" fill="inherit" xmlns="http://www.w3.org/2000/svg">
<path fill-rule="evenodd" clip-rule="evenodd" d="M4.09091 0C3.00593 0 1.96539 0.431007 1.1982 1.1982C0.431007 1.96539 0 3.00593 0 4.09091V6.36364C0 7.09902 0.442986 7.762 1.12239 8.04342C1.8018 8.32484 2.58383 8.16928 3.10383 7.64929L7.64929 3.10383C8.16928 2.58383 8.32484 1.8018 8.04342 1.12239C7.762 0.442986 7.09902 0 6.36364 0H4.09091ZM17.7273 0C16.7231 0 15.9091 0.814028 15.9091 1.81818C15.9091 2.82234 16.7231 3.63636 17.7273 3.63636H22.2727C23.2769 3.63636 24.0909 2.82234 24.0909 1.81818C24.0909 0.814028 23.2769 0 22.2727 0H17.7273ZM33.6364 0C32.901 0 32.238 0.442986 31.9566 1.12239C31.6752 1.8018 31.8307 2.58383 32.3507 3.10383L36.8962 7.64929C37.4162 8.16928 38.1982 8.32484 38.8776 8.04342C39.557 7.762 40 7.09902 40 6.36364V4.09091C40 3.00594 39.569 1.9654 38.8018 1.1982C38.0346 0.431005 36.9941 0 35.9091 0H33.6364ZM3.63636 17.7273C3.63636 16.7231 2.82234 15.9091 1.81818 15.9091C0.814028 15.9091 0 16.7231 0 17.7273V22.2727C0 23.2769 0.814028 24.0909 1.81818 24.0909C2.82234 24.0909 3.63636 23.2769 3.63636 22.2727V17.7273ZM40 17.7273C40 16.7231 39.186 15.9091 38.1818 15.9091C37.1777 15.9091 36.3636 16.7231 36.3636 17.7273V22.2727C36.3636 23.2769 37.1777 24.0909 38.1818 24.0909C39.186 24.0909 40 23.2769 40 22.2727V17.7273ZM3.10383 32.3507C2.58383 31.8307 1.8018 31.6752 1.12239 31.9566C0.442986 32.238 0 32.901 0 33.6364V35.9091C0 36.9941 0.431005 38.0346 1.1982 38.8018C1.9654 39.569 3.00594 40 4.09091 40H6.36364C7.09902 40 7.762 39.557 8.04342 38.8776C8.32484 38.1982 8.16928 37.4162 7.64929 36.8962L3.10383 32.3507ZM40 33.6364C40 32.901 39.557 32.238 38.8776 31.9566C38.1982 31.6752 37.4162 31.8307 36.8962 32.3507L32.3507 36.8962C31.8307 37.4162 31.6752 38.1982 31.9566 38.8776C32.238 39.557 32.901 40 33.6364 40H35.9091C36.9941 40 38.0346 39.569 38.8018 38.8018C39.569 38.0346 40 36.9941 40 35.9091V33.6364ZM17.7273 36.3636C16.7231 36.3636 15.9091 37.1777 15.9091 38.1818C15.9091 39.186 16.7231 40 17.7273 40H22.2727C23.2769 40 24.0909 39.186 24.0909 38.1818C24.0909 37.1777 23.2769 36.3636 22.2727 36.3636H17.7273ZM20 11.3636C21.0042 11.3636 21.8182 12.1777 21.8182 13.1818V18.1818H26.8182C27.8223 18.1818 28.6364 18.9958 28.6364 20C28.6364 21.0042 27.8223 21.8182 26.8182 21.8182H21.8182V26.8182C21.8182 27.8223 21.0042 28.6364 20 28.6364C18.9958 28.6364 18.1818 27.8223 18.1818 26.8182V21.8182H13.1818C12.1777 21.8182 11.3636 21.0042 11.3636 20C11.3636 18.9958 12.1777 18.1818 13.1818 18.1818H18.1818V13.1818C18.1818 12.1777 18.9958 11.3636 20 11.3636Z" />
</svg>
